<svg width="90" height="55" viewBox="0 0 90 55" fill="none" xmlns="http://www.w3.org/2000/svg">
<path d="M36.5529 24.6814C43.168 26.5097 46.3986 31.5374 46.3986 38.241C46.3986 49.2105 37.1682 53.9335 27.1687 53.9335H0.862305V0H26.5534C35.7837 0 43.9371 2.59003 43.9371 13.4072C43.9371 18.7396 41.3219 22.2438 36.5529 24.6814ZM12.7079 9.14127V21.7867H24.8611C29.1686 21.7867 32.2454 19.9585 32.2454 15.3878C32.2454 10.3601 28.3994 9.14127 24.092 9.14127H12.7079ZM25.6303 44.7922C30.3993 44.7922 34.3991 43.1163 34.3991 37.6316C34.3991 32.1468 31.1685 29.8615 25.7842 29.8615H12.7079V44.7922H25.6303ZM80.7046 8.07479H58.7057V2.74238H80.7046V8.07479ZM89.4734 35.0416C89.4734 35.651 89.3196 36.4127 89.3196 37.0222H60.8594C60.8594 43.2687 64.2439 46.9252 70.5512 46.9252C73.7819 46.9252 78.0893 45.2493 79.1662 41.8975H88.7042C85.7813 50.7341 79.6277 55 70.2436 55C57.7826 55 49.9369 46.6205 49.9369 34.4321C49.9369 22.7008 58.0903 13.7119 70.2436 13.7119C82.5507 13.7119 89.4734 23.4626 89.4734 35.0416ZM60.8594 30.1662H78.5509C78.0893 24.9862 75.3202 21.9391 69.7821 21.9391C64.7054 21.9391 61.1671 25.1385 60.8594 30.1662Z" fill="black"/>
</svg>
