<svg width="70" height="55" viewBox="0 0 70 55" fill="none" xmlns="http://www.w3.org/2000/svg">
<path d="M6.99153 55C5.06886 55 3.42585 54.3126 2.0625 52.972C0.699152 51.6314 0 50.0156 0 48.125V6.875C0 4.98438 0.699152 3.36884 2.0625 2.02822C3.42585 0.687592 5.06886 0 6.99153 0H62.9237C64.8464 0 66.4894 0.687592 67.8528 2.02822C69.2161 3.36884 69.9153 4.98438 69.9153 6.875V48.125C69.9153 50.0156 69.2161 51.6314 67.8528 52.972C66.4894 54.3126 64.8464 55 62.9237 55H6.99153ZM34.9576 30.9375L6.99153 13.75V48.125H62.9237V13.75L34.9576 30.9375ZM34.9576 24.0625L62.9237 6.875H6.99153L34.9576 24.0625Z" fill="black"/>
</svg>
