<svg width="56" height="55" viewBox="0 0 56 55" fill="none" xmlns="http://www.w3.org/2000/svg">
<path d="M28.4237 13.3203C36.1581 13.3203 42.542 19.7042 42.542 27.4386C42.542 35.2958 36.1581 41.5569 28.4237 41.5569C20.5665 41.5569 14.3054 35.2958 14.3054 27.4386C14.3054 19.7042 20.5665 13.3203 28.4237 13.3203ZM28.4237 36.6462C33.4572 36.6462 37.5085 32.5949 37.5085 27.4386C37.5085 22.4051 33.4572 18.3538 28.4237 18.3538C23.2674 18.3538 19.2161 22.4051 19.2161 27.4386C19.2161 32.5949 23.3902 36.6462 28.4237 36.6462ZM46.3478 12.8292C46.3478 14.6708 44.8746 16.144 43.0331 16.144C41.1915 16.144 39.7183 14.6708 39.7183 12.8292C39.7183 10.9877 41.1915 9.51451 43.0331 9.51451C44.8746 9.51451 46.3478 10.9877 46.3478 12.8292ZM55.6782 16.144C55.9237 20.6864 55.9237 34.3136 55.6782 38.856C55.4326 43.2757 54.4505 47.0815 51.2585 50.3962C48.0665 53.5882 44.138 54.5703 39.7183 54.8158C35.1759 55.0614 21.5487 55.0614 17.0063 54.8158C12.5866 54.5703 8.78083 53.5882 5.4661 50.3962C2.27414 47.0815 1.29199 43.2757 1.04646 38.856C0.800921 34.3136 0.800921 20.6864 1.04646 16.144C1.29199 11.7243 2.27414 7.79576 5.4661 4.6038C8.78083 1.41183 12.5866 0.429688 17.0063 0.184152C21.5487 -0.0613839 35.1759 -0.0613839 39.7183 0.184152C44.138 0.429688 48.0665 1.41183 51.2585 4.6038C54.4505 7.79576 55.4326 11.7243 55.6782 16.144ZM49.7853 43.644C51.2585 40.0837 50.8902 31.49 50.8902 27.4386C50.8902 23.51 51.2585 14.9163 49.7853 11.2333C48.8032 8.90067 46.9616 6.93638 44.629 6.07701C40.946 4.6038 32.3523 4.9721 28.4237 4.9721C24.3724 4.9721 15.7786 4.6038 12.2183 6.07701C9.76297 7.05915 7.92146 8.90067 6.93931 11.2333C5.4661 14.9163 5.8344 23.51 5.8344 27.4386C5.8344 31.49 5.4661 40.0837 6.93931 43.644C7.92146 46.0993 9.76297 47.9408 12.2183 48.923C15.7786 50.3962 24.3724 50.0279 28.4237 50.0279C32.3523 50.0279 40.946 50.3962 44.629 48.923C46.9616 47.9408 48.9259 46.0993 49.7853 43.644Z" fill="black"/>
</svg>
