<svg width="55" height="55" viewBox="0 0 55 55" fill="none" xmlns="http://www.w3.org/2000/svg">
<path fill-rule="evenodd" clip-rule="evenodd" d="M13.0154 54.3897V18.5928H1.9234V54.3897H13.0154ZM7.46939 13.551C10.9987 13.551 13.8557 10.694 13.8557 7.16471C13.8557 3.63544 10.9987 0.610352 7.46939 0.610352C3.77206 0.610352 0.915039 3.63544 0.915039 7.16471C0.915039 10.694 3.77206 13.551 7.46939 13.551ZM54.8624 54.3897V34.7266C54.8624 25.1472 52.6776 17.5845 41.4176 17.5845C36.0397 17.5845 32.3423 20.6095 30.8298 23.4666H30.6617V18.5928H20.0739V54.3897H31.1659V36.7433C31.1659 32.0376 32.0062 27.5 37.8883 27.5C43.6024 27.5 43.6024 32.8779 43.6024 36.9114V54.3897H54.8624Z" fill="black"/>
</svg>
